<svg version="1.2" xmlns="http://www.w3.org/2000/svg" viewBox="0 0 1645 470" width="1645" height="470">
	<title>MechaFusion - Logo Vectorizat</title>
	<style>
		.s0 { fill: #f6ca3c } 
		.s1 { fill: #242020 } 
	</style>
	<g id="Background">
		<path id="Path 0" class="s0" d="m89 447.8c0 0.4 0.4 1.2 0.8 1.8 0.4 0.6 2.3 1.5 4.2 1.8 2.5 0.5 4.2 0.2 6-1 1.7-1.2 3.9-1.6 7.1-1.3 2.5 0.2 5.4 1.1 6.4 1.9 1.1 1 3.3 1.4 5.9 1.2 2.3-0.2 4.6-0.8 5.1-1.3 0.6-0.6 3.7-0.7 7-0.4 3.3 0.4 11.4 0.8 18 1 6.6 0.3 14.7 0.4 18 0.3 3.3 0 8.6 0 11.8 0.1 3.1 0 8.4 0.1 11.7 0.1 3.3 0 8.7 0 12 0 3.3 0 8.7 0 12 0 3.3 0 8.7 0 12 0 3.3 0 8.4 0 11.3 0.1 2.8 0.1 7.7-0.2 10.7-0.6 3.2-0.5 6.3-0.4 7.5 0.2q2 1 12.7-0.1c7.8-0.8 11.4-0.8 13.5 0 1.9 0.8 4.1 0.8 6.8 0.2 2.2-0.6 6.5-1.2 9.5-1.5 3.2-0.2 5.9 0 6.5 0.7 0.6 0.6 3 1 5.5 1 2.8 0 5.2-0.7 6.4-1.8 1.2-1.1 3.3-1.7 6.5-1.6 2.5 0.1 5.7 0.8 7.1 1.7 1.6 1.1 3.5 1.5 5.5 1.1 2.2-0.5 2.9-1.1 2.8-2.5-0.3-1.9-3.4-1.9-125.3-1.9-68.8 0-125 0.3-125 0.7z"/>
		<path id="Path 1" class="s1" d="m51.7 433.8c-1.5 0.9-3.4 3.2-4.2 4.9-0.8 1.8-1.5 4.2-1.5 5.3 0 1.5 0.8 2.1 3.2 2.4 1.8 0.2 72.1 0.4 156.3 0.5 84.1 0.1 156.7-0.2 161.3-0.6l8.2-0.8c0-4.6-0.7-7-1.5-8.3-0.8-1.2-2.9-2.9-4.5-3.7-2.6-1.3-22.3-1.5-158.8-1.5-145.6 0.1-155.9 0.2-158.5 1.8z"/>
		<path id="Path 2" class="s0" d="m134 431.7c42.1 0.2 111.1 0.2 153.5 0 42.4-0.1 7.9-0.2-76.5-0.2-84.4 0-119.1 0.1-77 0.2z"/>
		<path id="Path 3" class="s1" d="m335.6 419.4c-1.4 1.4-2.5 3.7-2.6 5.1 0 1.4-0.7 2.7-1.5 3-0.8 0.3-1.3 1-1 1.5 0.3 0.6 5.3 1 12 1 9.6 0 11.5-0.3 11.5-1.5 0-0.8-0.9-1.7-2-2q-2-0.5-2-3c0-1.5-1-3.3-2.5-4.5-1.4-1.1-3-1.8-3.5-1.5-0.6 0.3-1 1.6-1 3 0 1.6-0.6 2.5-1.5 2.5-1 0-1.5-0.9-1.4-2.4 0.1-1.4-0.4-2.8-0.9-3.1-0.6-0.3-2.2 0.5-3.6 1.9z"/>
		<path id="Path 4" class="s1" d="m71.5 419.5c-1.3 1.3-2.4 3.6-2.5 5 0 1.5-0.7 2.7-1.8 3q-1.7 0.5-0.7 1.5c0.6 0.6 5.9 0.9 12.4 0.8 8.1-0.2 11.5-0.7 11.8-1.6 0.2-0.7-0.7-1.2-2.2-1.2-1.8 0-2.4-0.4-2-1.5 0.3-0.8-0.2-2.9-1-4.5-0.9-1.8-2.3-3-3.5-3q-2 0-2.5 2.5c-0.3 1.4-1.2 2.5-2 2.5q-1.5 0-1.5-3c0-1.6-0.5-3-1-3-0.6 0-2.2 1.1-3.5 2.5z"/>
		<path id="Path 5" fill-rule="evenodd" class="s1" d="m210.5 327c37.9 0 69.5 0.4 70.2 0.8 0.6 0.4 8.9 18 35.4 77.7l-0.6 24h-210l0.1-25 8-18c4.4-9.9 8.8-19.6 9.7-21.5 0.8-1.9 4.8-10.9 8.8-20 3.9-9.1 7.7-16.8 8.3-17.2 0.6-0.4 32.2-0.8 70.1-0.8zm48.5 8.5c0 0.3 4.4 7.2 9.8 15.5 5.3 8.2 11.8 18.2 14.4 22.2 2.6 4 6 9.7 7.7 12.5 2.9 5 3.3 5.3 7.1 5.3 2.2 0 4-0.2 4-0.5 0-0.3-0.8-2.4-1.9-4.8-1-2.3-4.4-10.1-7.6-17.2-3.1-7.1-6.7-15.3-8-18-1.3-2.8-3.3-7.3-4.6-10-1.2-2.8-2.2-5.3-2.3-5.8 0-0.4-0.2-0.6-0.5-0.5-0.4 0.1-4.5 0.3-9.3 0.5-4.9 0.2-8.8 0.5-8.8 0.8z"/>
		<path id="Path 6" class="s0" d="m263.5 334.7c2.8 0.2 6.8 0.2 9 0 2.2-0.2-0.1-0.3-5-0.3-4.9 0-6.8 0.1-4 0.3z"/>
		<path id="Path 7" class="s1" d="m169 307.5v15.5l83.5-0.5c0.6-23.7 0.3-27.3-0.7-28.1-1-0.9-3.8 0.5-12.8 6.5-7.9 5.3-13.8 8.4-19 10-6.1 2-8.7 2.3-14 1.8-3.6-0.3-8.5-1.4-11-2.4-2.5-0.9-6.1-2.7-8-3.8-1.9-1.2-5.2-3.9-7.4-6.1-2.1-2.1-4.5-4.9-5.2-6.1-0.8-1.3-2.3-2.3-3.4-2.3-1.9 0-2 0.7-2 15.5z"/>
		<path id="Path 22" class="s1" d="m1320 195v39h25v-78h-25z"/>
		<path id="Path 23" class="s1" d="m1222.5 158.1c-3.3 1-7.3 3-9 4.2-1.7 1.3-4 4.3-5.2 6.8-1.6 3-2.3 6.2-2.3 10.4 0 3.3 0.6 7.6 1.4 9.5 0.8 1.9 2.7 4.7 4.3 6.2 1.5 1.5 5.1 3.7 7.8 5 4.8 2.2 6.1 2.3 34.3 2.6l29.2 0.2c2.3 3.9 2.8 5.9 2.5 7-0.3 1.1-1.6 2.4-3 3-1.5 0.6-15 1-33.2 1l-30.8-0.1-15.5 20.1c86-0.5 86.6-0.5 91.5-2.8 2.8-1.3 6.3-3.5 7.9-5 1.6-1.5 3.7-4.5 4.7-6.7 1.2-2.5 1.9-6.3 1.9-10.2 0-3.5-0.6-7.8-1.4-9.5-0.7-1.8-2.6-4.5-4.2-6-1.6-1.5-4.7-3.5-6.9-4.5-3.5-1.5-8.2-1.8-34.3-2.3-28.9-0.5-30.4-0.6-31.8-2.5-0.8-1.1-1.4-2.4-1.4-3 0-0.6 0.6-1.9 1.4-3 1.4-1.9 2.7-2 31.5-2.2l30.1-0.3c10.3-13.6 13.8-18.1 14.4-18.8 0.9-1.1-6.2-1.3-38.4-1.2-36.3 0.1-40 0.3-45.5 2.1z"/>
		<path id="Path 24" class="s1" d="m1091.3 181.8c0.2 14.8 0.9 27.2 1.5 29.2 0.6 1.9 2.4 5.4 3.9 7.7 1.5 2.3 4.6 5.6 6.8 7.2 2.2 1.7 7.5 4.2 11.8 5.6 4.7 1.5 12.1 2.9 19 3.5 7.4 0.6 14.4 0.6 20.7-0.1 5.2-0.5 11.5-1.6 14-2.3 2.5-0.7 6.4-2.3 8.8-3.5 2.3-1.1 5.9-3.8 7.9-5.9 2-2 4.6-5.7 5.7-8.2 1.9-4.1 2.1-6.6 2.4-31.8l0.2-27.2h-24c-0.5 45.8-0.7 49.9-2.2 52-0.9 1.4-3.3 3.4-5.5 4.5-3.3 1.7-5.7 2-19.3 2-13.9 0-16-0.2-20-2.2-2.5-1.2-5.1-3.3-5.7-4.7-0.9-1.9-1.3-9.5-1.3-27.1v-24.5h-25.2z"/>
		<path id="Path 25" class="s1" d="m997 195v39h25v-28h43c10.8-13.6 14-18.1 14-18.8 0-0.9-6.4-1.2-28.5-1.2h-28.5v-10l47.5-0.1c10.8-14.2 14.1-18.7 14.3-19.1 0.1-0.4-19.4-0.8-43.3-0.8h-43.5z"/>
		<path id="Path 26" class="s1" d="m755 195v39h25v-30h46v30h24v-78h-24v27h-46v-27h-25z"/>
		<path id="Path 27" class="s1" d="m677.5 157.4c-2.8 0.7-7.5 2.4-10.5 3.8-3 1.4-7.7 4.5-10.4 6.9-2.8 2.6-6 6.8-7.7 10.4-1.8 3.8-3.2 8.4-3.6 12.5-0.5 5.1-0.1 8 1.5 13.5 1.3 4.1 3.7 9 6 12 2.1 2.7 6.2 6.7 9.2 8.8 3 2 8.2 4.7 11.5 5.9 5.4 2 8.5 2.2 32 2.6l26 0.4 15.5-20.2c-43.4 0-58.1-0.4-60.8-1-2.6-0.5-6.3-2-8.2-3.2-1.9-1.3-4.5-3.9-5.8-5.8-2-2.9-2.3-4.5-2-9.6 0.2-4.6 0.9-6.9 2.9-9.5 1.4-1.9 4.8-4.5 7.5-5.9 4.8-2.4 5.6-2.5 28.1-2.8l23.3-0.2 15-20c-54 0.1-66.1 0.6-69.5 1.4z"/>
		<path id="Path 28" class="s1" d="m549 195v39l75.5-0.1c10.9-14.2 14.1-18.7 14.3-19.1 0.1-0.4-14.7-0.8-32.8-0.8h-33v-10l47.5 0.1c10.5-13.3 13.5-17.5 13.5-18.1 0-0.6-10.8-1-30.5-1h-30.5v-9h51c10.4-13.6 13.8-18.1 14.4-18.8 0.9-1.1-7.2-1.3-44.2-1.2h-45.2z"/>
		<path id="Path 29" fill-rule="evenodd" class="s1" d="m1419 154.6c6.3 0.3 14.7 1.1 18.5 2 3.8 0.8 9.7 2.7 13 4.2 3.3 1.6 7.7 4.4 9.8 6.3 2.2 1.9 5.3 6.3 7 9.9 3 6.1 3.2 7.1 3.2 18 0 11-0.2 11.9-3.3 18.3-2.1 4.4-4.7 7.9-7.5 10.1-2.3 1.9-6.7 4.6-9.7 6-3 1.3-9.1 3.2-13.5 4.1q-8 1.7-22.5 1.7c-9.6 0-17.2-0.6-22.5-1.7-4.4-0.9-10.7-2.9-14-4.4-3.3-1.5-7.7-4.3-9.8-6.2-2.2-1.9-5.3-6.3-7-9.9-2.7-5.4-3.2-8-3.6-15.5-0.3-7.1 0.1-10.5 1.7-16 1.3-4.3 3.4-8.5 5.5-11 1.8-2.2 5.6-5.4 8.3-7.2 2.7-1.7 8.1-4.1 11.9-5.2 3.8-1.2 10.6-2.6 15-3.1 4.4-0.5 13.2-0.6 19.5-0.4zm-30.5 24.3c-1.7 0.9-3.8 3.1-4.8 4.7-0.9 1.6-2 5.4-2.3 8.4-0.4 3.2-0.1 7.3 0.6 10 0.7 2.5 2.5 5.6 3.9 7 1.5 1.4 4.9 3.1 7.6 3.8 2.8 0.8 9.7 1.6 15.5 1.9 5.8 0.3 14.1 0 18.5-0.6 4.4-0.6 9.6-2 11.5-3 1.9-1 4.4-3.3 5.5-5.2 1.5-2.6 2-5.2 2-10.9 0-5.7-0.5-8.3-2-10.9-1.1-1.9-3.3-4.3-5-5.2-1.7-1-5.9-2.3-9.5-2.8-3.6-0.6-11.2-1-17-1-5.8 0.1-13 0.5-16 1.1-3 0.5-6.8 1.7-8.5 2.7z"/>
		<path id="Path 30" class="s1" d="m918.5 155.5c-2.2 0.8-5.1 2.5-6.3 3.8-1.3 1.2-13.5 17.9-27.1 37.2-13.6 19.2-25 35.6-25.4 36.3-0.5 0.9 2.5 1.2 13.6 1.2h14.2c27.9-39.5 36.2-51 36.5-50.9 0.3 0 5.1 6.8 10.7 15.2l10.2 15.2-32.9 0.5-14.1 19.5c69.1 0.4 89.4 0.3 89.6 0 0.3-0.3-10.9-17-24.7-37.2-17.5-25.3-26.4-37.3-28.8-38.9-1.9-1.3-5.3-2.6-7.5-2.9-2.4-0.3-5.6 0.1-8 1z"/>
		<path id="Path 31" class="s1" d="m424.3 156c-2.7 1.3-4.9 3.2-5.9 5.3-0.9 1.7-6.1 18.4-11.5 37-5.5 18.5-9.9 34.1-9.9 34.7 0 0.6 4.6 1 11.7 1h11.8c9.3-35.6 12.3-46 12.7-46 0.5 0 5.1 8.4 10.4 18.7 5.4 10.4 10.9 20.5 12.3 22.6 1.4 2.1 3.7 4.2 5.1 4.7 1.4 0.5 3.4 1.1 4.5 1.5 1.1 0.3 4 0.1 6.5-0.4 3-0.7 5.3-2 7-4 1.4-1.6 7.2-12 13-23 5.8-11 10.8-20.1 11.2-20.1 0.5 0 1.2 2.1 1.8 4.7 0.5 2.7 3.1 12.9 5.8 22.8l4.9 18c23.3 0.5 24.3 0.4 23.9-1.3-0.2-0.9-4.8-17-10.1-35.7-5.4-18.7-10.6-35.2-11.6-36.8-1.1-1.5-3.8-3.4-6.2-4.3-3.3-1.2-5.1-1.3-8.2-0.5-2.2 0.6-5.2 2.3-6.7 3.8-1.5 1.5-7.1 10.7-12.6 20.3-5.4 9.6-11.1 19.9-12.6 22.7-1.4 2.9-2.8 5.3-3.1 5.3-0.3 0-1.7-2.4-3.1-5.3-1.5-2.8-7.1-13.1-12.5-22.7-5.4-9.6-10.9-18.6-12.1-19.9-1.3-1.4-3.8-3.1-5.6-3.8-1.7-0.7-4-1.3-5-1.3-0.9 0-3.6 0.9-6 2z"/>
		<path id="Path 32" fill-rule="evenodd" class="s0" d="m320.8 138.1c8.6-0.1 13.6 0.4 16.9 1.5 2.7 0.9 7.5 2.9 10.8 4.6 3.3 1.7 6.2 3.3 6.5 3.7 0.3 0.3 2.3 2.1 4.5 4 2.2 1.9 5.7 5.5 7.7 8 2 2.5 4.8 6.7 6.2 9.4 1.4 2.6 3.5 8.2 4.6 12.5 1.1 4.2 2 10.3 2 13.5 0 3.1-0.7 9-1.6 13-0.9 3.9-2.8 9.7-4.2 12.7-1.4 3-4.5 8-6.9 11-2.5 3-7.2 7.6-10.6 10.2-3.4 2.6-7.1 5.2-8.2 5.7-1.1 0.5-3.6 1.6-5.5 2.5-1.9 0.8-6 2-9 2.6-3 0.5-8.9 1-13 1-4.1-0.1-9.8-0.5-12.5-1-3.4-0.5-5.7-0.4-7.1 0.3-1.2 0.7-10.4 6.8-20.6 13.7-10.2 6.9-27 18.2-37.4 25.2-11.3 7.6-20.9 13.3-23.9 14.2-2.8 0.9-7.5 1.6-10.5 1.6-3 0-8-0.7-11-1.6-3-0.9-6.6-2.3-8-3.2-1.4-0.9-4.4-3.4-6.8-5.6-2.5-2.3-5.7-6.9-7.4-10.6-2.3-4.7-3.2-8.4-3.6-13.5-0.3-5.4 0.1-8.3 1.6-12.5 1.2-3 3.6-7.7 5.5-10.5 2.7-4 6.8-7.3 20.8-16.7 9.6-6.5 18.2-12.3 19.3-13 1-0.7 2.9-2.1 4.2-3 1.3-1 2.7-1.8 3.1-1.8 0.5 0 3-1.8 5.8-3.8 2.7-2.1 10.6-7.6 30-20.4l1.9-8.2c1-4.4 3.1-10.7 4.7-13.8 1.6-3.2 3.9-7 5.1-8.5 1.3-1.6 4.4-4.9 7-7.5 2.7-2.7 6.7-6 9-7.5 2.4-1.5 7.4-3.9 11.3-5.4 6.3-2.5 8.3-2.8 19.2-2.8zm-15.3 16.2c-0.4 0.4-1.4 0.7-2.3 0.7-0.9 0-4.5 2.1-8.1 4.8-3.6 2.7-8.2 7.3-10.3 10.3-2 3-4.6 8.3-5.7 11.9-1.1 3.6-2 9.3-2 12.8 0 3.4 0.5 8.3 1.1 11 0.6 2.6 2.1 6.7 3.2 9.2 1.2 2.5 5.3 7.7 9.2 11.6 5.6 5.6 8.4 7.6 14 9.8 4 1.6 9.8 3.1 13.5 3.4 3.7 0.3 8.7 0 11.5-0.7 2.7-0.7 7.7-2.5 11-4.1 3.3-1.5 8.1-4.9 10.7-7.4 2.7-2.5 4.8-4.8 4.8-5.1 0-0.3 0.8-1.4 1.7-2.4 1-1.1 2.9-4.8 4.3-8.3 2.1-5.3 2.5-8 2.5-16.8 0-9.5-0.3-11.1-2.9-17-1.7-3.6-4.1-7.8-5.5-9.4-1.4-1.7-3.7-4.1-5.1-5.4-1.4-1.3-3.9-3.5-5.5-4.8-1.6-1.3-6.1-3.5-10-4.9-5.3-1.9-8.9-2.4-15-2.4-4.4 0-9.4 0.6-11.2 1.2-1.7 0.7-3.5 1.5-3.9 2zm-126.9 115.2c-0.6 3.9-0.3 6.7 1.5 12.5 1.8 6 3.2 8.5 7.1 12.5l4.8 5c-2.2-9.3-2.9-14.9-2.9-18.5 0-3.6 0.7-9.6 1.5-13.5 0.8-3.9 1.5-7.1 1.5-7.2 0-0.2-2.5-0.3-5.5-0.3-4.8 0-5.7 0.3-6.4 2.3-0.5 1.2-1.2 4.5-1.6 7.2z"/>
		<path id="Path 33" class="s1" d="m308 164.1c-2.5 1.1-6.3 3.5-8.4 5.2-2.2 1.8-5.1 5-6.6 7.2-1.5 2.2-3.6 6.7-4.5 10-1.3 4.4-1.6 7.6-1.1 12 0.4 3.3 1.8 8.4 3.1 11.3 1.4 2.8 4.7 7.3 7.3 10 3 2.9 6.9 5.6 10.5 7 4 1.5 7.8 2.2 12.7 2.2 4.9 0 8.7-0.7 12.7-2.2 3.1-1.3 7.6-4.1 10.1-6.3 2.6-2.3 5.7-6.7 7.6-10.5 2.7-5.6 3.1-7.5 3.1-14.5-0.1-6.7-0.5-9-3-14.4-1.8-3.8-4.7-8-7.2-10.2-2.4-2.2-6.7-5-9.5-6.4-2.9-1.4-6.1-2.5-7-2.5-1.7 0-1.8 1.7-1.8 22.5v22.5h-10c0-43.3-0.1-45-1.7-45-1 0-3.8 1-6.3 2.1z"/>
		<path id="Path 34" class="s1" d="m425 76c0 4.9 0.1 5 3 5 2.9 0 3-0.1 3-5 0-4.9-0.1-5-3-5-2.9 0-3 0.1-3 5z"/>
		<path id="Path 35" class="s0" d="m418.1 76.8c-0.1 18.6 0 19.2 1.9 19.2 1.8 0 2-0.7 2-6q0-6 1.5-7.5c0.9-0.9 1.5-3.4 1.5-6.2 0.1-3.1-0.5-5.3-1.5-6.3-0.9-0.8-1.6-2.2-1.6-3 0-0.8-0.8-3.3-1.8-5.5l-1.9-4z"/>
		<path id="Path 36" class="s1" d="m418 56.3c0 0.1 0.8 2.2 1.9 4.7l2.1 4.5c0-8.8-0.3-9.5-2-9.5-1.1 0-2 0.1-2 0.3z"/>
		<path id="Path 37" class="s0" d="m397.2 57.6l-0.2 2.9c-100.2-0.4-129.7-0.2-130.1 0.2-0.4 0.5 1.8 4.6 4.9 9.2 3.1 4.6 7.1 10.5 8.7 13.1 1.6 2.6 3.9 5.7 5 6.9l2 2.2 109.5-0.1c0.5 5.2 0.9 5.5 4.5 5.8 2.2 0.1 4.4-0.2 5-0.8 0.5-0.5 2-1 3.5-1 2.2 0 2.5-0.4 2.6-3.8 0.1-2 0.2-5.5 0.3-7.7 0.1-2.2-0.1-9.5-0.4-16.3l-0.5-12.2c-6.6 0-9.9-0.3-11.6-0.6-2.9-0.6-3.1-0.4-3.2 2.2z"/>
		<path id="Path 38" fill-rule="evenodd" class="s0" d="m243.5 48.5c3.9 0.3 7.4 1.3 10 2.8 2.2 1.3 5.6 4.4 7.5 6.8 1.9 2.4 5.2 6.8 7.2 9.9 2.1 3 5.9 8.6 8.5 12.4 2.6 3.8 6.4 9.3 8.3 12.1 1.9 2.9 5.8 8.6 8.6 12.6 2.7 4.1 7.2 10.6 9.9 14.4 2.7 3.8 5.7 8.1 6.7 9.5 1 1.4 1.9 3.1 1.8 3.8 0 0.6-1.9 1.5-4.3 1.8-2.3 0.3-7.3 2-11.2 3.6-3.9 1.6-9 4.4-11.5 6.1-2.5 1.7-6.9 5.5-15 13.7l-13.6-19.8c-7.5-10.8-14.6-21-15.7-22.7-1.2-1.7-4.1-5.9-6.6-9.5-2.4-3.6-6.8-9.9-9.6-14-2.8-4.1-5.7-9.3-6.4-11.5-0.8-2.2-1.2-6.5-1-9.5 0.3-4.2 1.3-6.8 3.9-10.9 1.9-2.9 5.1-6.3 7-7.5 1.9-1.1 4.8-2.7 6.5-3.3 1.8-0.8 5.4-1.1 9-0.8zm-14.2 22.3c-1.4 4-1.5 5.4-0.4 9.2 0.7 2.5 2.2 5.5 3.4 6.7 1.2 1.3 4 2.7 6.2 3.2 2.8 0.7 5.3 0.6 8.4-0.2 2.8-0.8 5.3-2.3 6.8-4.2 1.2-1.7 2.7-4.8 3.3-7 1-3.5 0.8-4.6-1.2-8.4-1.3-2.5-3.4-5.3-4.8-6.4-1.4-1-4.5-2-7-2.3-3.6-0.4-5.3 0-8.8 2.1-3.3 1.9-4.6 3.6-5.9 7.3z"/>
		<path id="Path 39" class="s1" d="m239.5 69.1c-1.1 0.5-2.6 2-3.3 3.4-0.6 1.4-1.2 3.3-1.2 4.3-0.1 0.9 0.8 2.8 1.9 4.2 1.4 1.9 2.9 2.5 5.6 2.5 2.7 0 4.2-0.6 5.6-2.5 1.1-1.4 2-4 1.9-5.7 0-2.4-0.8-3.9-2.7-5.3-1.6-1.2-3.5-2-4.3-2-0.8 0.1-2.4 0.6-3.5 1.1z"/>
		<path id="Path 40" fill-rule="evenodd" class="s1" d="m491.1 13c0.5 0 8 3.7 16.6 8.2 8.7 4.5 22.1 11.4 43.8 22.7l0.5 15.1h-3.5c-2.2 0-3.7-0.5-4-1.5-0.3-0.8-0.5-2.8-0.5-4.5 0-2.7-0.3-3-3-3-2.7 0-3 0.3-3 3 0 1.7-0.2 3.7-0.5 4.5-0.3 0.8-1.6 1.5-3 1.5-2.4 0-2.5-0.3-2.7-5.7-0.1-3.2-0.2-6.6-0.2-7.5-0.1-1.6-1.7-1.8-38.6-1.8l-9 16v34.5l4.2 7.5c2.2 4.1 4.3 7.7 4.5 8 0.3 0.3 9 0.5 19.3 0.5 18.1 0 18.9-0.1 19.4-2 0.3-1.1 0.6-4.4 0.6-7.2 0-5.2 0.1-5.3 2.7-5 2.4 0.2 2.8 0.7 3 3.5 0.3 2.8 0.6 3.2 3.3 3.2 2.7 0 3-0.4 3.2-3.2 0.3-3 0.6-3.3 7.8-3.8v14.5l-10.2 5.2c-5.7 2.9-19.3 10-30.3 15.7-11 5.8-20.2 10.6-20.5 10.6-0.3 0-6.8-8.1-14.5-18.2-7.7-10-15.7-20.6-17.8-23.5-3.5-5-4-5.3-8-5.3-2.3 0-6.6-0.4-14.7-1.5v-16.2c0-13.8 0.2-16.3 1.5-16.3 0.9 0 1.2-0.5 0.7-1.2-0.5-0.9 1.3-1 16.3 0.1l6.1-8.2c3.4-4.5 10-13.2 14.5-19.2 4.6-6.1 9.9-13 11.7-15.3 1.9-2.3 3.8-4.2 4.3-4.2zm-37.8 55.7c-1.2 1.5-2.4 4.3-2.7 6-0.3 1.8-0.1 4.8 0.5 6.5 0.7 1.8 2.1 4.3 3.3 5.6 1.1 1.2 3.7 2.7 5.6 3.3 1.9 0.6 4.9 0.9 6.5 0.6 1.8-0.4 4.6-2.3 6.9-4.9 3.6-4 3.9-4.6 3.5-9.5-0.3-3.7-1.1-5.8-2.9-7.8-1.4-1.5-3.2-3-4-3.5-0.8-0.4-2.6-1-4-1.3-1.4-0.3-4.3 0.1-6.5 0.8-2.2 0.8-5 2.7-6.2 4.2z"/>
		<path id="Path 41" class="s0" d="m465.3 77.5c0 3.8 0.2 5.2 0.4 3 0.2-2.2 0.2-5.3 0-7-0.2-1.7-0.4 0.2-0.4 4z"/>
		<path id="Path 42" class="s1" d="m466 77c0 4.4 0.4 8.2 1 8.5 0.6 0.3 2.1-0.6 3.5-2 1.6-1.6 2.5-3.6 2.5-5.8 0.1-1.7-0.8-4.4-2-6-1.1-1.5-2.7-2.7-3.5-2.7-1.2 0-1.5 1.6-1.5 8zm-10.1-4.8c-1.3 2.3-1.8 4.2-1.4 6.3 0.3 1.7 1.4 3.8 2.3 4.8 0.9 1 2.3 1.8 2.9 1.7 0.7 0 1.5-0.7 1.8-1.5 0.3-0.8 0.5-3.9 0.5-6.8 0-2.9-0.5-5.8-1.2-6.5-0.7-0.7-1.6-1.2-2.1-1.2-0.4 0-1.6 1.5-2.8 3.3z"/>
		<path id="Path 43" class="s1" d="m1491 155.3c-2 0.7-4.4 2.7-5.7 4.7-2.4 3.5-2.4 3.6-2.3 38.7v35.3h22l0.5-44.9c39.1 35.1 51.3 45.3 53 45.8 1.8 0.5 4.6 0.5 7 0 2.2-0.5 5-1.9 6.3-3.1 1.3-1.3 2.7-3.9 3.2-5.8 0.6-1.9 1-18.5 1-36.8v-33.2h-23l-0.5 44.7c-34.9-31.6-46.6-41.9-48.5-43.2-1.9-1.4-4.8-2.7-6.5-3-1.7-0.2-4.6 0.1-6.5 0.8z"/>
	</g>
</svg>